<svg fill="#000000" xmlns="http://www.w3.org/2000/svg"  viewBox="0 0 64 64" width="64px" height="64px"><path d="M 11 2.054688 C 7.140625 2.054688 4 5.195313 4 9.054688 L 4 51.054688 C 4 54.914063 7.140625 58 11 58 L 53 58 C 56.859375 58 60 54.914063 60 51.054688 L 60 9.054688 C 60 5.195313 56.859375 2.054688 53 2.054688 Z M 11 4 L 53 4 C 55.757813 4 58 6.296875 58 9.054688 L 58 51.054688 C 58 53.8125 55.757813 56.054688 53 56.054688 L 11 56.054688 C 8.242188 56.054688 6 53.8125 6 51.054688 L 6 9.054688 C 6 6.296875 8.242188 4 11 4 Z M 9 8.054688 C 8.449219 8.054688 8 8.503906 8 9.054688 L 8 11.054688 C 8 11.605469 8.449219 12.054688 9 12.054688 C 9.550781 12.054688 10 11.605469 10 11.054688 L 10 9.054688 C 10 8.5 9.550781 8.054688 9 8.054688 Z M 14 8.054688 C 13.449219 8.054688 13 8.503906 13 9.054688 L 13 11.054688 C 13 11.605469 13.449219 12.054688 14 12.054688 C 14.550781 12.054688 15 11.605469 15 11.054688 L 15 9.054688 C 15 8.5 14.550781 8.054688 14 8.054688 Z M 19 8.054688 C 18.449219 8.054688 18 8.503906 18 9.054688 L 18 11.054688 C 18 11.605469 18.449219 12.054688 19 12.054688 C 19.550781 12.054688 20 11.605469 20 11.054688 L 20 9.054688 C 20 8.503906 19.550781 8.054688 19 8.054688 Z M 24 8.054688 C 23.449219 8.054688 23 8.503906 23 9.054688 L 23 11.054688 C 23 11.605469 23.449219 12.054688 24 12.054688 C 24.550781 12.054688 25 11.605469 25 11.054688 L 25 9.054688 C 25 8.503906 24.550781 8.054688 24 8.054688 Z M 29 8.054688 C 28.449219 8.054688 28 8.503906 28 9.054688 L 28 11.054688 C 28 11.605469 28.449219 12.054688 29 12.054688 C 29.550781 12.054688 30 11.605469 30 11.054688 L 30 9.054688 C 30 8.503906 29.550781 8.054688 29 8.054688 Z M 34 8.054688 C 33.449219 8.054688 33 8.503906 33 9.054688 L 33 11.054688 C 33 11.605469 33.449219 12.054688 34 12.054688 C 34.550781 12.054688 35 11.605469 35 11.054688 L 35 9.054688 C 35 8.503906 34.550781 8.054688 34 8.054688 Z M 39 8.054688 C 38.449219 8.054688 38 8.503906 38 9.054688 L 38 11.054688 C 38 11.605469 38.449219 12.054688 39 12.054688 C 39.550781 12.054688 40 11.605469 40 11.054688 L 40 9.054688 C 40 8.503906 39.550781 8.054688 39 8.054688 Z M 44 8.054688 C 43.449219 8.054688 43 8.503906 43 9.054688 L 43 11.054688 C 43 11.605469 43.449219 12.054688 44 12.054688 C 44.550781 12.054688 45 11.605469 45 11.054688 L 45 9.054688 C 45 8.503906 44.550781 8.054688 44 8.054688 Z M 49 8.054688 C 48.449219 8.054688 48 8.503906 48 9.054688 L 48 11.054688 C 48 11.605469 48.449219 12.054688 49 12.054688 C 49.550781 12.054688 50 11.605469 50 11.054688 L 50 9.054688 C 50 8.5 49.550781 8.054688 49 8.054688 Z M 54 8.054688 C 53.449219 8.054688 53 8.503906 53 9.054688 L 53 11.054688 C 53 11.605469 53.449219 12.054688 54 12.054688 C 54.550781 12.054688 55 11.605469 55 11.054688 L 55 9.054688 C 55 8.5 54.550781 8.054688 54 8.054688 Z M 24.996094 22.015625 L 21.976563 22.035156 C 19.785156 22.050781 18 23.84375 18 26.035156 L 18 36.054688 C 18 38.261719 19.792969 40.054688 22 40.054688 L 25.019531 40.054688 C 27.214844 40.054688 29 38.269531 29 36.074219 L 29 33 C 29 32.449219 28.550781 32 28 32 C 27.449219 32 27 32.449219 27 33 L 27 36.074219 C 27 37.167969 26.113281 38.054688 25.019531 38.054688 L 22 38.054688 C 20.898438 38.054688 20 37.15625 20 36.054688 L 20 26.035156 C 20 24.941406 20.890625 24.042969 21.988281 24.035156 L 25.007813 24.015625 C 25.542969 24.015625 26.039063 24.21875 26.417969 24.59375 C 26.792969 24.96875 27 25.46875 27 26 C 27 26.550781 27.449219 27 28 27 C 28.550781 27 29 26.550781 29 26 C 29 24.929688 28.582031 23.929688 27.828125 23.175781 C 27.074219 22.429688 26.078125 22.015625 25.019531 22.015625 Z M 36.164063 25.015625 C 35.617188 24.921875 35.105469 25.292969 35.015625 25.835938 L 34.652344 28 L 32 28 C 31.449219 28 31 28.449219 31 29 C 31 29.550781 31.449219 30 32 30 L 34.320313 30 L 33.652344 34 L 31 34 C 30.449219 34 30 34.449219 30 35 C 30 35.550781 30.449219 36 31 36 L 33.320313 36 L 33.015625 37.835938 C 32.921875 38.382813 33.289063 38.894531 33.835938 38.984375 C 33.890625 38.996094 33.949219 39 34 39 C 34.480469 39 34.90625 38.652344 34.984375 38.164063 L 35.347656 36 L 39.316406 36 L 39.015625 37.835938 C 38.921875 38.382813 39.289063 38.894531 39.835938 38.984375 C 39.890625 38.996094 39.949219 39 40 39 C 40.480469 39 40.90625 38.652344 40.984375 38.164063 L 41.347656 36 L 44 36 C 44.550781 36 45 35.550781 45 35 C 45 34.449219 44.550781 34 44 34 L 41.679688 34 L 42.347656 30 L 45 30 C 45.550781 30 46 29.550781 46 29 C 46 28.449219 45.550781 28 45 28 L 42.679688 28 L 42.984375 26.164063 C 43.078125 25.617188 42.710938 25.105469 42.164063 25.015625 C 41.617188 24.921875 41.105469 25.292969 41.015625 25.835938 L 40.652344 28 L 36.679688 28 L 36.984375 26.164063 C 37.078125 25.617188 36.710938 25.105469 36.164063 25.015625 Z M 36.347656 30 L 40.316406 30 L 39.652344 34 L 35.679688 34 Z"/></svg>