<svg fill="#000000" xmlns="http://www.w3.org/2000/svg"  viewBox="0 0 64 64" width="64px" height="64px"><path d="M 28.992188 0 C 28.440188 0 27.992188 0.448 27.992188 1 L 27.992188 13.589844 L 25.701172 11.300781 C 25.311172 10.912781 24.682969 10.912781 24.292969 11.300781 L 20.291016 15.300781 C 19.903016 15.690781 19.903016 16.320938 20.291016 16.710938 L 31.294922 27.710938 C 31.682922 28.097938 32.313125 28.096984 32.703125 27.708984 L 43.707031 16.708984 C 44.095031 16.318984 44.095031 15.688828 43.707031 15.298828 L 39.705078 11.298828 C 39.315078 10.910828 38.686875 10.910828 38.296875 11.298828 L 35.994141 13.589844 L 35.994141 1 C 35.994141 0.448 35.546141 0 34.994141 0 L 28.992188 0 z M 29.992188 2 L 33.994141 2 L 33.994141 15.998047 C 33.991141 16.550047 34.435281 17.002859 34.988281 17.005859 C 35.257281 17.007859 35.516078 16.899984 35.705078 16.708984 L 38.996094 13.408203 L 41.587891 15.998047 L 31.994141 25.589844 L 22.400391 15.998047 L 24.990234 13.408203 L 28.28125 16.699219 C 28.67025 17.091219 29.304266 17.094078 29.697266 16.705078 C 29.885266 16.518078 29.991187 16.263047 29.992188 15.998047 L 29.992188 2 z M 32 31 C 31.448 31 31 31.448 31 32 L 31 38 C 31 38.552 31.448 39 32 39 C 32.552 39 33 38.552 33 38 L 33 32 C 33 31.448 32.552 31 32 31 z M 21.1875 35.050781 C 21.058047 35.040906 20.925672 35.055609 20.794922 35.099609 C 20.270922 35.275609 19.988063 35.842234 20.164062 36.365234 C 20.177063 36.404234 20.192937 36.443469 20.210938 36.480469 L 21.710938 40.189453 C 21.886937 40.713453 22.453563 40.996312 22.976562 40.820312 C 23.500563 40.644312 23.781469 40.077688 23.605469 39.554688 C 23.592469 39.515687 23.578547 39.476453 23.560547 39.439453 L 22.060547 35.730469 C 21.928547 35.337469 21.575859 35.080406 21.1875 35.050781 z M 42.945312 35.058594 C 42.556109 35.040594 42.175344 35.253453 41.996094 35.626953 C 41.978094 35.663953 41.962219 35.700281 41.949219 35.738281 L 40.449219 39.449219 C 40.243219 39.961219 40.49 40.542 41 40.75 C 41.511 40.956 42.092781 40.709219 42.300781 40.199219 L 43.800781 36.490234 C 44.038781 35.992234 43.828078 35.39525 43.330078 35.15625 C 43.205578 35.09675 43.075047 35.064594 42.945312 35.058594 z M 54.056641 40.033203 C 53.801391 40.013453 53.537625 40.091984 53.328125 40.271484 C 53.289125 40.305484 53.253703 40.341859 53.220703 40.380859 L 49 44.619141 C 48.704 45.085141 48.842594 45.704 49.308594 46 C 49.635594 46.207 50.053859 46.207 50.380859 46 L 54.630859 41.789062 C 55.049859 41.430062 55.097281 40.799859 54.738281 40.380859 C 54.558781 40.171359 54.311891 40.052953 54.056641 40.033203 z M 10.033203 40.142578 C 9.7779531 40.162328 9.5291094 40.278781 9.3496094 40.488281 C 9.0286094 40.862281 9.0286094 41.415062 9.3496094 41.789062 L 13.619141 46 C 14.085141 46.296 14.704 46.157406 15 45.691406 C 15.207 45.364406 15.207 44.946141 15 44.619141 L 10.759766 40.380859 C 10.550266 40.201359 10.288453 40.122828 10.033203 40.142578 z M 32 41 C 20.185168 41 10.548254 50.31415 10.025391 62 L 1 62 C 0.448 62 0 62.448 0 63 C 0 63.552 0.448 64 1 64 L 63 64 C 63.552 64 64 63.552 64 63 C 64 62.448 63.552 62 63 62 L 53.974609 62 C 53.451746 50.31415 43.814832 41 32 41 z M 32 43 C 42.710632 43 51.453544 51.418676 51.974609 62 L 12.025391 62 C 12.546456 51.418676 21.289368 43 32 43 z M 32 47 C 31.448 47 31 47.448 31 48 L 31 50 C 31 50.552 31.448 51 32 51 C 32.552 51 33 50.552 33 50 L 33 48 C 33 47.448 32.552 47 32 47 z M 37.695312 48.039062 C 37.306109 48.021062 36.925344 48.231969 36.746094 48.605469 C 36.728094 48.642469 36.712219 48.68075 36.699219 48.71875 L 35.949219 50.568359 C 35.743219 51.080359 35.99 51.661141 36.5 51.869141 C 37.011 52.075141 37.592781 51.830312 37.800781 51.320312 L 38.550781 49.470703 C 38.788781 48.972703 38.578078 48.375719 38.080078 48.136719 C 37.955578 48.077219 37.825047 48.045063 37.695312 48.039062 z M 26.427734 48.041016 C 26.298281 48.031141 26.163953 48.045844 26.033203 48.089844 C 25.509203 48.265844 25.228297 48.832469 25.404297 49.355469 C 25.417297 49.394469 25.431219 49.433703 25.449219 49.470703 L 26.199219 51.320312 C 26.375219 51.844313 26.943797 52.125219 27.466797 51.949219 C 27.990797 51.773219 28.271703 51.206594 28.095703 50.683594 C 28.082703 50.644594 28.068781 50.607312 28.050781 50.570312 L 27.300781 48.720703 C 27.168781 48.327703 26.816094 48.070641 26.427734 48.041016 z M 59.017578 51.105469 C 58.888125 51.095594 58.753797 51.110297 58.623047 51.154297 C 58.584047 51.167297 58.546766 51.181219 58.509766 51.199219 L 54.800781 52.699219 C 54.290781 52.907219 54.044 53.489 54.25 54 C 54.458 54.51 55.039781 54.756781 55.550781 54.550781 L 59.259766 53.050781 C 59.783766 52.874781 60.066625 52.306203 59.890625 51.783203 C 59.758625 51.390203 59.405938 51.135094 59.017578 51.105469 z M 5.0957031 51.160156 C 4.7072031 51.189781 4.3566094 51.446844 4.2246094 51.839844 C 4.0636094 52.318844 4.2842344 52.842547 4.7402344 53.060547 L 8.4492188 54.560547 C 8.9732188 54.736547 9.5407969 54.453688 9.7167969 53.929688 C 9.8777969 53.450688 9.6542188 52.928937 9.1992188 52.710938 L 5.4902344 51.210938 C 5.3592344 51.166938 5.2252031 51.150281 5.0957031 51.160156 z M 42.736328 51.34375 C 42.481078 51.324 42.219266 51.400578 42.009766 51.580078 C 41.970766 51.614078 41.933391 51.650453 41.900391 51.689453 L 40.490234 53.099609 C 40.131234 53.518609 40.180609 54.150766 40.599609 54.509766 C 40.973609 54.830766 41.526391 54.830766 41.900391 54.509766 L 43.310547 53.099609 C 43.729547 52.740609 43.778922 52.108453 43.419922 51.689453 C 43.240422 51.479953 42.991578 51.3635 42.736328 51.34375 z M 45.833984 56.125 C 45.704266 56.119984 45.570406 56.140703 45.441406 56.189453 C 45.417406 56.198453 45.394094 56.209703 45.371094 56.220703 L 43.580078 57 C 43.062078 57.192 42.797234 57.767156 42.990234 58.285156 L 43 58.310547 C 43.216 58.818547 43.802547 59.054844 44.310547 58.839844 L 46.150391 58.060547 C 46.666391 57.864547 46.925469 57.287484 46.730469 56.771484 C 46.583469 56.384484 46.223141 56.140047 45.833984 56.125 z"/></svg>